# xmcd
#
# Track frame offsets:
#	150
#	20810
#	37705
#	58426
#	73577
#	93377
#	108105
#	130195
#	156819
#	179176
#	199781
#	218801
#	240170
#	255544
#	272145
#	287921
#	308562
#	326842
#
# Disc length: 4679 seconds
#
# Revision: 2
# Processed by: cddbd v1.5.2PL0 Copyright (c) Steve Scherf et al.
# Submitted via: audiograbber 1.83.01
#
DISCID=09124512
DTITLE=Brad Paisley - Norwegian Favourites
DYEAR=2010
DGENRE=Country
TTITLE0=Ticks
TTITLE1=When You're A Celebrity
TTITLE2=American Saturday Night
TTITLE3=Me Neither
TTITLE4=Water
TTITLE5=I'm Gonna Miss Her
TTITLE6=Alcohol
TTITLE7=Welcome To The Future
TTITLE8=Online
TTITLE9=Waitin' On A Woman
TTITLE10=I'm Still A Guy
TTITLE11=He Didn't Have to Be
TTITLE12=Wrapped Around
TTITLE13=Little Moments
TTITLE14=Mud On The Tires
TTITLE15=Come On Over Tonight
TTITLE16=The World
TTITLE17=Then
EXTD=
EXTT0=
EXTT1=
EXTT2=
EXTT3=
EXTT4=
EXTT5=
EXTT6=
EXTT7=
EXTT8=
EXTT9=
EXTT10=
EXTT11=
EXTT12=
EXTT13=
EXTT14=
EXTT15=
EXTT16=
EXTT17=
PLAYORDER=
